# xmcd CD database file
#
# Track frame offsets:
#	150
#	15496
#	34182
#	48460
#	63620
#	78877
#	93606
#	109128
#	124721
#	140790
#	155752
#
# Disc length: 2396 seconds
#
# Revision: 0
# Processed by: cddbd v1.5.1PL2 Copyright (c) Steve Scherf et al.
# Submitted via: CDex 1.51
#
DISCID=96095a0b
DTITLE=Acústicos and Valvulados - Creme Dental Rock'n'Roll
DYEAR=1900
DGENRE=Blues
TTITLE0=Se Você For Assim
TTITLE1=Na Pele
TTITLE2=Sem Ter Razão
TTITLE3=Sol Da Estrada
TTITLE4=Deus Quis
TTITLE5=Mais Perto
TTITLE6=Cinco Frazes
TTITLE7=Tudo o Que Ela Disse
TTITLE8=Imaginação
TTITLE9=Dia Além
TTITLE10=Eu Dentro Dela
EXTD=
EXTT0=
EXTT1=
EXTT2=
EXTT3=
EXTT4=
EXTT5=
EXTT6=
EXTT7=
EXTT8=
EXTT9=
EXTT10=
PLAYORDER=
